# xmcd CD database file
#
# Track frame offsets:
#	150
#	11832
#	26160
#	41005
#	54187
#	69065
#	82245
#	93875
#	106367
#	119870
#	131210
#	143052
#	155980
#	168380
#	179175
#	191187
#	204125
#	216680
#	228520
#	239745
#	252870
#	263985
#	277815
#	289475
#	301782
#	315675
#
# Disc length: 4355 seconds
#
# Revision: 0
# Processed by: cddbd v1.5.2PL0 Copyright (c) Steve Scherf et al.
# Submitted via: CDex 1.50beta8
#
DISCID=9711011a
DTITLE=CHARLIE PARKER - THE SAVOY RECORDINGS -Master Takes-
DYEAR=1989
DGENRE=Jazz
TTITLE0=WARMING UP A RIFF
TTITLE1=BILLIE'S BOUNCE
TTITLE2=NOW'S THE TIME
TTITLE3=THRIVING ON A RIFF
TTITLE4=MEANDERING
TTITLE5=KO KO
TTITLE6=DONNA LEE
TTITLE7=CHASIN' THE BIRD
TTITLE8=CHERYL
TTITLE9=BUZZY
TTITLE10=MILESTONES
TTITLE11=LITTLE WILLIE LEAPS
TTITLE12=HALF NELSON
TTITLE13=SIPPIN' AT BELLS
TTITLE14=ANOTHER HAIRDO
TTITLE15=BLUEBIRD
TTITLE16=KLAUNSTANCE
TTITLE17=BIRD GETS THE WORM
TTITLE18=BARBADOS
TTITLE19=AH LEU CHA
TTITLE20=CONSTELLATION
TTITLE21=PARKER'S MOOD
TTITLE22=PERHAPS
TTITLE23=MARMADUKE
TTITLE24=STTEPLECHASE
TTITLE25=MERRY GO ROUND
EXTD=
EXTT0=
EXTT1=
EXTT2=
EXTT3=
EXTT4=
EXTT5=
EXTT6=
EXTT7=
EXTT8=
EXTT9=
EXTT10=
EXTT11=
EXTT12=
EXTT13=
EXTT14=
EXTT15=
EXTT16=
EXTT17=
EXTT18=
EXTT19=
EXTT20=
EXTT21=
EXTT22=
EXTT23=
EXTT24=
EXTT25=
PLAYORDER=
